<svg width="24" height="24" xmlns="http://www.w3.org/2000/svg" viewBox="0 0 24 24"><path fill="" d="M13.8 13.6c-.5-.5-1-1.2-1.4-1.8.4-1.3.5-2.4.3-3.1-.2-.6-.7-.9-1.4-.7-.5.1-.9.5-.9 1.1 0 .7.3 1.7.9 2.8-.2.7-.5 1.4-.9 2.2 0 .1-.1.2-.1.3-1.4.5-2.7 1.3-3 2.1-.1.4 0 .8.2 1.1.2.3.5.4.8.4.2 0 .4-.1.7-.2.6-.4 1.4-1.4 2-2.6l1.2-.3c.4-.1.8-.2 1.2-.2.6.6 1.3 1.1 1.9 1.3.8.3 1.5.1 2-.5.2-.3.3-.7 0-1-.5-.8-2-1-3.5-.9zM8.3 17c-.1-.1-.1-.1 0-.2.1-.3.5-.6 1.2-1-.7.9-1.1 1.2-1.2 1.2zm3.2-8h.2c.1.2.1.7 0 1.5-.2-.5-.3-.9-.3-1.3 0-.2.1-.2.1-.2zm.4 4.9c-.1 0-.2.1-.4.1.2-.3.3-.7.4-1 .2.3.4.5.6.8-.1 0-.4 0-.6.1zm3.7 1.1c-.2-.1-.5-.2-.8-.4.8 0 1.4.2 1.6.3-.1.1-.4.2-.8.1z"/><path fill="" d="M17.6 3.2H8.5c-.2 0-.3.1-.4.2L4.7 6.9c-.1.1-.2.3-.2.4V19c0 1 .8 1.8 1.8 1.8h11.3c1 0 1.8-.8 1.8-1.8V5c.1-1-.7-1.8-1.8-1.8zM8.5 4.6v2.5H6.1l2.4-2.5zM18.3 19c0 .4-.3.6-.6.6H6.4c-.4 0-.6-.3-.6-.6V8.4h3.4c.3 0 .6-.3.6-.6V4.4h7.9c.4 0 .6.3.6.6v14z"/></svg>