<?xml version="1.0" encoding="utf-8"?>
<!-- Generator: Adobe Illustrator 24.3.0, SVG Export Plug-In . SVG Version: 6.00 Build 0)  -->
<svg version="1.1" xmlns="http://www.w3.org/2000/svg" xmlns:xlink="http://www.w3.org/1999/xlink" x="0px" y="0px"
	 viewBox="0 0 19.1 21.1" style="enable-background:new 0 0 19.1 21.1;" xml:space="preserve">
<style type="text/css">
	.st0{clip-path:url(#SVGID_2_);fill:#2C3038;}
	.st1{fill:#2C3038;}
	.st2{display:none;}
	.st3{display:inline;}
	.st4{clip-path:url(#SVGID_4_);fill:#2C3038;}
</style>
<g id="Capa_1">
	<g>
		<g>
			<defs>
				<path id="SVGID_1_" d="M5.8,2.5L3.2,5.2h2.6V2.5z M15.6,2.2H7.1v3.6c0,0.4-0.3,0.6-0.6,0.6H2.8v11.4c0,0.4,0.3,0.7,0.7,0.7h12.1
					c0.4,0,0.7-0.3,0.7-0.7v-15C16.3,2.5,16,2.2,15.6,2.2z M15.6,0.9c1.1,0,2,0.9,2,2v15c0,1.1-0.9,2-2,2H3.5c-1.1,0-2-0.9-2-2V5.4
					c0-0.2,0.1-0.3,0.2-0.4l3.6-3.8C5.5,1,5.6,0.9,5.8,0.9H15.6z"/>
			</defs>
			<clipPath id="SVGID_2_">
				<use xlink:href="#SVGID_1_"  style="overflow:visible;"/>
			</clipPath>
			<rect x="0.4" y="-0.2" class="st0" width="18.2" height="21.1"/>
		</g>
		<g>
			<path class="st1" d="M7.2,14.2l1.8,2.2H7.7l-1.1-1.4l-1.1,1.4H4.2l1.8-2.2l-1.7-2h1.3l1,1.3l1-1.3h1.3L7.2,14.2z"/>
			<path class="st1" d="M9.4,16.3v-6h1.1v6H9.4z"/>
			<path class="st1" d="M12.1,16.3c-0.3-0.1-0.6-0.2-0.8-0.4l0.3-0.7c0.4,0.3,1,0.5,1.5,0.5c0.2,0,0.4,0,0.6-0.1
				c0.1-0.1,0.2-0.2,0.2-0.3c0-0.1,0-0.2-0.1-0.3c-0.1-0.1-0.2-0.1-0.5-0.2l-0.7-0.2c-0.4-0.1-0.7-0.2-0.9-0.4
				c-0.2-0.2-0.3-0.4-0.3-0.8c0-0.3,0.1-0.5,0.2-0.7s0.3-0.4,0.6-0.5c0.3-0.1,0.6-0.2,0.9-0.2c0.3,0,0.6,0,0.9,0.1
				c0.3,0.1,0.5,0.2,0.7,0.4l-0.3,0.7c-0.4-0.3-0.9-0.5-1.3-0.5c-0.2,0-0.4,0-0.5,0.1c-0.1,0.1-0.2,0.2-0.2,0.4c0,0.1,0,0.2,0.1,0.3
				s0.2,0.1,0.4,0.2l0.7,0.2c0.4,0.1,0.7,0.2,0.9,0.4c0.2,0.2,0.3,0.5,0.3,0.8c0,0.4-0.2,0.7-0.5,0.9s-0.7,0.3-1.3,0.3
				C12.7,16.4,12.4,16.4,12.1,16.3z"/>
		</g>
	</g>
</g>
<g id="Capa_2" class="st2">
	<g class="st3">
		<defs>
			<path id="SVGID_3_" d="M14.2,1.7H4.9V4h9.2V1.7z M15.4,6.9c-0.1,0-0.3,0.1-0.3,0.3c0,0.1,0.1,0.3,0.3,0.3c0.1,0,0.3-0.1,0.3-0.3
				C15.7,7,15.6,6.9,15.4,6.9z M15.4,6.2c0.5,0,0.9,0.4,0.9,0.9c0,0.5-0.4,0.9-0.9,0.9s-0.9-0.4-0.9-0.9C14.5,6.7,14.9,6.2,15.4,6.2
				z M16.8,5.2H2.3C1.8,5.2,1.5,5.6,1.5,6v4.2h16V6C17.6,5.6,17.2,5.2,16.8,5.2z M12.6,12.5c0.3,0,0.6,0.3,0.6,0.6s-0.3,0.6-0.6,0.6
				H8.9c-0.3,0-0.6-0.3-0.6-0.6s0.3-0.6,0.6-0.6H12.6z M3.7,11.4H1.5v2.5c0,0.4,0.3,0.7,0.7,0.7h1.5V11.4z M17.6,11.4h-2.2v3.2h1.5
				c0.4,0,0.7-0.3,0.7-0.7V11.4z M12.6,14.8c0.3,0,0.6,0.3,0.6,0.6S12.9,16,12.6,16H6.5c-0.3,0-0.6-0.3-0.6-0.6s0.3-0.6,0.6-0.6
				H12.6z M12.6,17c0.3,0,0.6,0.3,0.6,0.6s-0.3,0.6-0.6,0.6H6.5c-0.3,0-0.6-0.3-0.6-0.6S6.2,17,6.5,17H12.6z M14.2,11.4H4.9v8h9.2
				V11.4z M14.8,0.5c0.3,0,0.6,0.3,0.6,0.6V4h1.5c1.1,0,1.9,0.9,1.9,1.9v7.9c0,1.1-0.9,1.9-1.9,1.9h-1.5V20c0,0.3-0.3,0.6-0.6,0.6
				H4.3c-0.3,0-0.6-0.3-0.6-0.6v-4.2H2.3c-1.1,0-1.9-0.9-1.9-1.9V6C0.3,4.9,1.2,4,2.3,4h1.5V1.1c0-0.3,0.3-0.6,0.6-0.6H14.8z"/>
		</defs>
		<clipPath id="SVGID_4_">
			<use xlink:href="#SVGID_3_"  style="overflow:visible;"/>
		</clipPath>
		<rect x="-0.7" y="-0.5" class="st4" width="20.4" height="22"/>
	</g>
</g>
</svg>
