<?xml version="1.0" encoding="utf-8"?>
<!-- Generator: Adobe Illustrator 24.3.0, SVG Export Plug-In . SVG Version: 6.00 Build 0)  -->
<svg version="1.1" id="Capa_1" xmlns="http://www.w3.org/2000/svg" xmlns:xlink="http://www.w3.org/1999/xlink" x="0px" y="0px"
	 viewBox="0 0 457 457" style="enable-background:new 0 0 457 457;" xml:space="preserve">
<path d="M403.2,148.9c-0.5-0.4-1-0.6-1.6-0.9c-0.6-0.2-1.1-0.4-1.7-0.5c-1.7-0.4-3.6-0.2-5.2,0.5c-1.2,0.5-2.2,1.2-3,2
	c-1.6,1.6-2.6,4-2.6,6.5c0,2.4,1,4.8,2.6,6.4c0.8,0.9,1.8,1.6,3,2c1.1,0.5,2.3,0.7,3.5,0.7c0.5,0,1.2-0.1,1.7-0.2
	c0.6-0.2,1.2-0.4,1.7-0.5c0.6-0.3,1.1-0.6,1.6-0.8c0.5-0.4,1-0.7,1.5-1.2c1.6-1.6,2.6-4,2.6-6.4c0-2.5-1-4.8-2.6-6.5
	C404.2,149.5,403.7,149.2,403.2,148.9z"/>
<path d="M366.8,152.9c-0.3-0.6-0.5-1-0.8-1.6c-0.4-0.5-0.7-0.9-1.2-1.4c-2.6-2.6-6.6-3.4-10-2c-1.1,0.5-2.1,1.2-2.9,2
	c-1.7,1.7-2.7,4-2.7,6.5c0,1.2,0.3,2.4,0.7,3.5c0.5,1.1,1.1,2.1,2,2.9c0.8,0.9,1.8,1.6,2.9,2c1.1,0.5,2.3,0.7,3.6,0.7
	c2.4,0,4.8-1,6.4-2.7c0.9-0.8,1.6-1.8,2-2.9c0.5-1.1,0.7-2.3,0.7-3.5c0-0.6-0.1-1.2-0.2-1.8C367.1,154.1,367,153.5,366.8,152.9z"/>
<path d="M417.8,104.2h-61v-95c0-5-4.1-9.1-9.1-9.1h-238c-5,0-9.1,4.1-9.1,9.1v95h-61c-13.5,0-24.4,11-24.4,24.4V326
	c0,13.5,11,24.4,24.4,24.4h61v97.4c0,5,4.1,9.1,9.1,9.1h238c5,0,9.1-4.1,9.1-9.1v-97.4h61c13.5,0,24.4-11,24.4-24.4V128.6
	C442.2,115.1,431.2,104.2,417.8,104.2z M118.8,18.3h219.7v85.9H118.8V18.3z M118.8,438.7V263.8h219.7v174.9H118.8z M423.9,326
	c0,3.4-2.8,6.2-6.2,6.2h-61v-68.4h28.7c5,0,9.1-4.1,9.1-9.1c0-5-4.1-9.1-9.1-9.1H71.9c-5,0-9.1,4.1-9.1,9.1c0,5,4.1,9.1,9.1,9.1
	h28.7v68.4h-61c-3.4,0-6.2-2.8-6.2-6.2V128.6c0-3.4,2.8-6.2,6.2-6.2h378.2c3.4,0,6.2,2.8,6.2,6.2V326z"/>
<path d="M148.5,314.2h110.1c5,0,9.1-4.1,9.1-9.1c0-5-4.1-9.1-9.1-9.1H148.5c-5,0-9.1,4.1-9.1,9.1
	C139.3,310.1,143.4,314.2,148.5,314.2z"/>
<path d="M308.9,342.1H148.5c-5,0-9.1,4.1-9.1,9.1c0,5,4.1,9.1,9.1,9.1h160.4c5,0,9.1-4.1,9.1-9.1C318,346.2,313.9,342.1,308.9,342.1
	z"/>
<path d="M308.9,388.4H148.5c-5,0-9.1,4.1-9.1,9.1c0,5,4.1,9.1,9.1,9.1h160.4c5,0,9.1-4.1,9.1-9.1C318,392.5,313.9,388.4,308.9,388.4
	z"/>
</svg>
