<svg width="24" height="24" viewBox="0 0 24 24" fill="none" xmlns="http://www.w3.org/2000/svg">
<path d="M21 12C21 17 17 21 12 21C7 21 3 17 3 12C3 7 7 3 12 3C17 3 21 7 21 12Z" fill="white"/>
<path d="M12 3C7 3 3 7 3 12C3 17 7 21 12 21C17 21 21 17 21 12C21 7 17 3 12 3ZM15.5 15.4C15.3 15.6 15 15.7 14.8 15.7C14.6 15.7 14.3 15.6 14.1 15.4L12.1 13.4L10.1 15.4C9.9 15.6 9.6 15.7 9.4 15.7C9.2 15.7 8.9 15.6 8.7 15.4C8.3 15 8.3 14.4 8.7 14L10.7 12L8.7 10C8.3 9.6 8.3 9 8.7 8.6C9.1 8.2 9.7 8.2 10.1 8.6L12 10.5L14 8.6C14.4 8.2 15 8.2 15.4 8.6C15.8 9 15.8 9.6 15.4 10L13.5 12L15.5 14C15.9 14.4 15.9 15 15.5 15.4Z" fill="#FF0000"/>
</svg>
