<svg width="24" height="24" viewBox="0 0 24 24" fill="none" xmlns="http://www.w3.org/2000/svg">
<path d="M21 12C21 17 17 21 12 21C7 21 3 17 3 12C3 7 7 3 12 3C17 3 21 7 21 12Z" fill="#D9D9D9"/>
<path d="M12 3C7 3 3 7 3 12C3 17 7 21 12 21C17 21 21 17 21 12C21 7 17 3 12 3ZM16.7 10L11.6 15.2C11.5 15.3 11.4 15.4 11.3 15.4C11.2 15.4 11 15.5 10.9 15.5C10.8 15.5 10.6 15.5 10.5 15.4C10.4 15.4 10.3 15.3 10.2 15.2L7.9 12.9C7.5 12.5 7.5 11.9 7.9 11.5C8.3 11.1 8.9 11.1 9.3 11.5L10.9 13.1L15.3 8.6C15.7 8.2 16.3 8.2 16.7 8.6C17.1 9 17.1 9.6 16.7 10Z" fill="#4AAB2B"/>
</svg>
